<svg xmlns="http://www.w3.org/2000/svg" width="23" height="23"><path fill-rule="evenodd" fill="#FFF" d="M21.363 22.998H-.007V2.72l3.29.041v.811c0 1.339 1.105 2.429 2.465 2.429 1.361 0 2.466-1.091 2.466-2.429v-.811h6.579v.811c0 1.338 1.101 2.429 2.464 2.429 1.361 0 2.465-1.091 2.465-2.429v-.811h3.26l.025 20.233-1.644.004zm0-14.569H1.638v12.954h19.725V8.429zm-14.67 7.729H4.105v-2.25h2.588v2.25zm0 3.814H4.105v-2.25h2.588v2.25zm4.117-7.553H8.219v-2.252h2.591v2.252zm0 3.739H8.219v-2.25h2.591v2.25zm0 3.814H8.219v-2.25h2.591v2.25zm4.189-7.553h-2.593v-2.252h2.593v2.252zm0 3.739h-2.593v-2.25h2.593v2.25zm0 3.814h-2.593v-2.25h2.593v2.25zm3.884-7.553h-2.591v-2.252h2.591v2.252zm0 3.739h-2.591v-2.25h2.591v2.25zm0 3.814h-2.591v-2.25h2.591v2.25zM17.229 4.855a1.602 1.602 0 01-1.619-1.591V1.597c0-.885.723-1.595 1.619-1.595s1.619.711 1.619 1.595v1.666c0 .883-.725 1.592-1.619 1.592zm-11.507 0a1.6 1.6 0 01-1.617-1.591V1.597c0-.885.723-1.595 1.617-1.595.895 0 1.62.71 1.621 1.595v1.666c0 .883-.726 1.592-1.621 1.592z"/></svg>