<svg xmlns="http://www.w3.org/2000/svg" width="18" height="14"><defs><filter id="a"><feFlood flood-color="#FFF" flood-opacity="1" result="floodOut"/><feComposite in="floodOut" in2="SourceGraphic" operator="atop" result="compOut"/><feBlend in="compOut" in2="SourceGraphic"/></filter></defs><g filter="url(#a)"><path fill="#FFF" fill-rule="evenodd" d="M18.007 1.663a7.65 7.65 0 01-2.125.548c.8-.46 1.34-1.109 1.622-1.947a7.42 7.42 0 01-2.342.852C14.431.373 13.533.002 12.466.002c-1.02 0-1.89.344-2.61 1.032-.72.69-1.08 1.523-1.08 2.499 0 .263.031.532.092.81a10.634 10.634 0 01-4.244-1.089A10.369 10.369 0 011.26.646a3.342 3.342 0 00-.503 1.783c0 .605.148 1.166.445 1.684.297.517.697.937 1.2 1.257a3.788 3.788 0 01-1.668-.448v.044c0 .853.28 1.602.84 2.247a3.662 3.662 0 002.119 1.219c-.32.08-.644.12-.971.12-.214 0-.446-.018-.697-.054.236.706.67 1.288 1.302 1.743a3.697 3.697 0 002.148.707c-1.34 1.005-2.867 1.508-4.581 1.508a8.58 8.58 0 01-.891-.043c1.714 1.056 3.602 1.585 5.666 1.585 1.31 0 2.54-.199 3.69-.596 1.15-.398 2.132-.93 2.947-1.597a10.817 10.817 0 002.108-2.301c.59-.868 1.03-1.774 1.319-2.718a9.61 9.61 0 00.423-3.297 7.555 7.555 0 001.851-1.826z"/></g></svg>